<?xml version="1.0" encoding="utf-8"?>
<!-- Generator: Adobe Illustrator 19.1.0, SVG Export Plug-In . SVG Version: 6.00 Build 0)  -->
<svg version="1.1" id="Layer_1" xmlns="http://www.w3.org/2000/svg" xmlns:xlink="http://www.w3.org/1999/xlink" x="0px" y="0px"
	 viewBox="-169 223.9 460.2 154.1" style="enable-background:new -169 223.9 460.2 154.1;" xml:space="preserve">
<style type="text/css">
	.st0{fill:#35C1D5;}
	.st1{fill:#3D55A3;}
	.st2{fill:#FFFFFF;}
</style>
<path class="st0" d="M-143.3,356.4c5.5,5.5,12,9.9,19.2,12.9c7.4,3.2,15.5,4.8,23.6,4.8c8.1,0,16.1-1.6,23.5-4.8
	c7.2-3,13.7-7.4,19.2-12.9c5.5-5.5,9.9-12,12.9-19.2c3.2-7.5,4.8-15.4,4.8-23.5c0-11-3.2-22.2-9.7-33.5c-3.4-6-7.8-12.1-13.1-18.2
	c-1.8-2.1-3.7-4.1-5.5-6c-7.2-7.5-13.4-12.4-14.2-13c-6-4.7-12.1-9.4-18.1-14.2c-5.7,4.4-11.3,8.9-17,13.3
	c-5.4,4.3-10.5,8.9-15.3,13.9c-1.8,1.8-3.6,3.8-5.5,6c-5.3,6.1-9.6,12.1-13.1,18.2c-6.4,11.3-9.7,22.5-9.7,33.5
	c0,8.1,1.6,16.1,4.8,23.5C-153.2,344.4-148.8,350.9-143.3,356.4z"/>
<path class="st1" d="M-71.1,304"/>
<path class="st2" d="M-72.6,295.5c-2.6-5-6.3-10.3-10.9-15.6c-7.8-9-15.5-15.1-15.8-15.3l-1.2-0.9l-1.2,0.9
	c-0.3,0.3-8,6.3-15.8,15.3c-4.6,5.3-8.3,10.6-10.9,15.6c-3.4,6.4-5.1,12.5-5.1,18.1c0,4.5,0.9,8.8,2.6,12.9c1.7,3.9,4,7.5,7.1,10.5
	c3,3,6.6,5.4,10.5,7.1c4.1,1.7,8.4,2.6,12.9,2.6c4.5,0,8.8-0.9,12.9-2.6c3.9-1.7,7.5-4,10.5-7.1c3-3,5.4-6.6,7.1-10.5
	c1.7-4.1,2.6-8.4,2.6-12.9C-67.5,308.1-69.2,302-72.6,295.5z M-72.2,307.3l-27.4,12.1l0.3-15.9l21.3-9.5c0.7,1.1,1.3,2.2,1.9,3.3
	C-74.2,300.8-73,304.2-72.2,307.3z M-86.5,282.5c2.4,2.8,4.5,5.5,6.4,8.2l-19.1,8.5l0.5-28.9C-95.7,272.8-91.1,277.2-86.5,282.5z
	 M-121.2,334.3c-5.5-5.5-8.5-12.8-8.5-20.6c0-5,1.6-10.4,4.6-16.3c2.5-4.8,6-9.8,10.4-14.9c4.5-5.3,9.1-9.5,12.1-12.1l-1.3,72.2
	C-110.4,341.9-116.5,339-121.2,334.3z M-80,334.3c-5.4,5.4-12.5,8.4-20,8.5l0.3-19l28.1-12.5c0.1,0.8,0.1,1.6,0.1,2.3
	C-71.4,321.5-74.4,328.8-80,334.3z"/>
<g>
	<g>
		<g>
			<g>
				<g>
					<path class="st2" d="M17.9,242.6l2.1-0.3c0.9,0,1.5,0.8,1.6,2.3c0.1,1.5,0.2,2.8,0.4,3.8c0.2,1,0.3,1.9,0.5,2.6
						c0.2,0.8,0.3,1.4,0.4,2c0.1,0.5,0.2,1,0.2,1.3s-0.2,0.7-0.6,1c-0.4,0.3-0.8,0.5-1.2,0.5c-0.8,0-1.5-0.8-2.3-2.5
						c-1.4-3.1-2.6-5.2-3.6-6.1c-2.2-2-5.4-2.9-9.7-2.9c-6,0-9.9,1.8-12,5.3c-0.6,1.2-1,2.6-1,4.2c0,1.7,0.4,3.2,1.2,4.7
						c0.8,1.5,2,2.9,3.7,4.4s3.7,3.1,6.3,4.7c2.5,1.7,5.3,3.5,8.2,5.5c2.9,2,5.2,3.8,6.8,5.4c1.6,1.6,2.9,3.2,4,4.8
						c1.9,3,2.9,5.9,2.9,8.8c0,2.8-0.4,5.4-1.2,7.6c-0.8,2.2-2.1,4.2-4,5.8c-4,3.7-9.8,5.5-17.6,5.5c-3.9,0-8.3-0.9-13-2.6
						c-1.1-0.4-1.8-0.8-2-1.3c-0.3-0.6-0.6-1.7-0.8-3.2c-0.2-1.6-0.5-3-0.8-4.3c-0.3-1.3-0.6-2.4-0.9-3.5l-0.7-2.6
						c-0.2-0.8-0.3-1.4-0.3-1.9c0-1.2,0.5-1.8,1.4-1.8c1.2,0,2.1,0.9,2.6,2.8c0.9,3.3,1.8,5.5,2.5,6.4c2.9,3.8,6.2,6.3,10,7.4
						c1.1,0.3,2.6,0.5,4.5,0.5c1.9,0,3.7-0.3,5.5-0.8c1.8-0.6,3.3-1.3,4.5-2.3c2.2-1.8,3.3-4,3.3-6.7c0-2.6-0.8-5-2.5-7.1
						s-3.7-4-6-5.5c-2.4-1.6-4.1-2.7-5.3-3.5s-2.3-1.5-3.3-2.1c-8.6-5.7-13.6-11.4-15.2-17c-0.4-1.5-0.6-3.2-0.6-5.1
						c0-1.9,0.5-3.9,1.4-5.9c0.9-2,2.3-3.8,4.1-5.3c3.9-3.3,8.9-5,15.1-5c2.8,0,5.1,0.3,6.7,0.9C15.7,242.2,17.2,242.6,17.9,242.6z"
						/>
					<path class="st2" d="M45.7,275.5c0-5.1,1-9.8,2.9-14.1c1.9-4.3,4.5-8,7.8-11.1c3.3-3.1,7-5.5,11.3-7.2
						c4.3-1.7,8.9-2.6,13.9-2.6c5,0,9.6,0.9,13.9,2.7c4.3,1.8,7.9,4.3,11,7.5c6.4,6.7,9.6,15.3,9.6,25.6c0,9.8-3.3,18-9.9,24.6
						c-6.7,6.7-15.3,10.1-25.7,10.1c-10.1,0-18.5-3.4-25.1-10.2C48.9,294.2,45.7,285.7,45.7,275.5z M54.3,272.6
						c0,4.4,0.7,8.7,2.2,13c1.4,4.2,3.5,7.9,6.1,11.1c5.6,6.8,12.8,10.2,21.4,10.2c6.7,0,12.1-2.5,16.4-7.5
						c4.4-5.1,6.6-11.9,6.6-20.3c0-9.9-2.7-18.1-8-24.7c-5.3-6.4-12-9.6-20-9.6c-6.7,0-12.4,2.5-17.2,7.6
						C56.8,257.7,54.3,264.4,54.3,272.6z"/>
					<path class="st2" d="M135.5,310.5c-0.9,0-1.3-0.2-1.3-0.7c0-0.3,0.9-1.8,2.7-4.4l41.8-58.8c-3.3-0.5-7.2-0.7-11.6-0.7
						c-11.8,0-19.3,1.3-22.5,3.9c-1,0.8-1.9,1.8-2.5,2.9c-0.6,1.1-1.1,1.8-1.4,2c-0.3,0.3-0.7,0.4-1.1,0.4c-1,0-1.5-0.5-1.5-1.6
						c0-0.5,0.1-0.9,0.2-1.3c0.2-0.4,0.3-0.9,0.5-1.5c0.6-1.6,1-3.3,1.1-5c0.1-1.7,0.4-3,0.8-3.7s1.1-1,2-1c1,0,2.1,0,3.3,0.1
						c1.3,0,2.7,0.1,4.4,0.2c1.7,0.1,3.5,0.1,5.5,0.2c2,0.1,4.1,0.1,6.3,0.2c4.4,0.1,8.4,0.2,12,0.2c3.6,0,6.5-0.1,8.8-0.4
						c2.3-0.3,4.2-0.4,5.7-0.4c1.5,0,2.3,0.4,2.3,1.2c-0.1,0.7-1.3,2.7-3.6,6l-40,57.6h26.1c8.4,0,14-1.4,16.7-4.2
						c0.8-0.9,1.4-1.8,1.8-2.7s0.7-1.5,1-1.8c0.3-0.3,0.6-0.5,1.1-0.5c1,0,1.5,0.6,1.5,1.7c0,0.2-0.2,1.1-0.6,2.6
						c-0.7,2.8-1.2,5-1.4,6.6c-0.2,1.6-0.5,2.6-0.9,2.9c-0.4,0.4-1,0.5-1.9,0.5c-0.9,0-2.6-0.2-5.2-0.5c-2.6-0.3-5.8-0.5-9.7-0.5
						L135.5,310.5z"/>
					<path class="st2" d="M213.4,275.5c0-5.1,1-9.8,2.9-14.1c1.9-4.3,4.5-8,7.8-11.1c3.3-3.1,7-5.5,11.3-7.2s8.9-2.6,13.9-2.6
						c5,0,9.6,0.9,13.9,2.7c4.3,1.8,7.9,4.3,11,7.5c6.4,6.7,9.6,15.3,9.6,25.6c0,9.8-3.3,18-9.9,24.6c-6.7,6.7-15.3,10.1-25.7,10.1
						c-10.1,0-18.5-3.4-25.1-10.2C216.6,294.2,213.4,285.7,213.4,275.5z M222.1,272.6c0,4.4,0.7,8.7,2.2,13
						c1.4,4.2,3.5,7.9,6.1,11.1c5.6,6.8,12.8,10.2,21.4,10.2c6.7,0,12.1-2.5,16.4-7.5c4.4-5.1,6.6-11.9,6.6-20.3
						c0-9.9-2.7-18.1-8-24.7c-5.3-6.4-12-9.6-20-9.6c-6.7,0-12.4,2.5-17.2,7.6C224.6,257.7,222.1,264.4,222.1,272.6z"/>
				</g>
			</g>
		</g>
	</g>
	<g>
		<path class="st2" d="M-10.1,339.4c-0.4,0.3-0.6,0.7-0.8,1.1c-0.1,0.4-0.2,0.8-0.2,1.3c0,0.4,0.2,0.9,0.6,1.2
			c0.4,0.4,0.9,0.7,1.5,1c0.6,0.3,1.4,0.5,2.2,0.7c0.8,0.2,1.7,0.4,2.5,0.6c0.8,0.2,1.7,0.5,2.5,0.7c0.8,0.3,1.5,0.6,2.2,1
			c1.4,0.9,2.1,2.1,2.1,3.7c0,1.9-0.7,3.3-2.1,4.3s-3.3,1.5-5.8,1.5c-2.8,0-4.9-0.6-6.4-1.7c-1.3-1-2-2.5-2.2-4.4h2.3
			c0.1,1.4,0.7,2.4,2,3.1c1.1,0.6,2.5,0.9,4.3,0.9c3.7,0,5.6-1.2,5.6-3.5c0-0.8-0.3-1.4-1-1.9c-0.7-0.5-1.5-0.8-2.5-1.1
			c-1-0.3-2.1-0.6-3.3-0.8s-2.3-0.6-3.3-1c-1-0.4-1.9-1-2.5-1.6c-0.7-0.7-1-1.6-1-2.7c0-1.6,0.6-2.9,1.9-4c1.2-1,3.1-1.5,5.6-1.5
			c2.5,0,4.5,0.6,5.9,1.7c1.3,1,1.9,2.3,2,3.9h-2.3c-0.2-1.6-1.3-2.7-3.2-3.3c-0.7-0.2-1.5-0.3-2.5-0.3c-1,0-1.9,0.1-2.6,0.3
			C-9.2,338.8-9.7,339-10.1,339.4z"/>
		<path class="st2" d="M23.7,344.3l8.9,11.9h-2.8l-7.8-10.3l-4.1,3.8v6.5h-2.2v-19.9H18v10.3l11-10.3h3.2L23.7,344.3z"/>
		<path class="st2" d="M46.8,356.2h-2.2v-19.9h2.2V356.2z"/>
		<path class="st2" d="M78.4,336.3v19.9h-2.6l-12.3-16.8v16.8h-2.2v-19.9h2.6L76.1,353v-16.7H78.4z"/>
		<path class="st2" d="M111.1,338.5v6.9h10.8v2.2h-10.8v8.6h-2.2v-19.9h14.3v2.2H111.1z"/>
		<path class="st2" d="M138.2,356.2h-2.2v-19.9h2.2V356.2z"/>
		<path class="st2" d="M166.7,338.5h-6.9v17.7h-2.2v-17.7h-6.9v-2.2h16.1V338.5z"/>
		<path class="st2" d="M196.3,336.3v19.9h-2.6l-12.3-16.8v16.8h-2.2v-19.9h2.6l12.3,16.7v-16.7H196.3z"/>
		<path class="st2" d="M213,338.5v6.7h11v2.2h-11v6.7h12.4v2.2h-14.6v-19.9h14.6v2.2H213z"/>
		<path class="st2" d="M240.6,339.4c-0.4,0.3-0.6,0.7-0.8,1.1c-0.1,0.4-0.2,0.8-0.2,1.3c0,0.4,0.2,0.9,0.6,1.2
			c0.4,0.4,0.9,0.7,1.5,1c0.6,0.3,1.4,0.5,2.2,0.7c0.8,0.2,1.7,0.4,2.5,0.6c0.8,0.2,1.7,0.5,2.5,0.7c0.8,0.3,1.5,0.6,2.2,1
			c1.4,0.9,2.1,2.1,2.1,3.7c0,1.9-0.7,3.3-2.1,4.3c-1.4,1-3.3,1.5-5.8,1.5c-2.8,0-4.9-0.6-6.4-1.7c-1.3-1-2-2.5-2.2-4.4h2.3
			c0.1,1.4,0.7,2.4,2,3.1c1.1,0.6,2.5,0.9,4.3,0.9c3.7,0,5.6-1.2,5.6-3.5c0-0.8-0.3-1.4-1-1.9c-0.7-0.5-1.5-0.8-2.5-1.1
			c-1-0.3-2.1-0.6-3.3-0.8s-2.3-0.6-3.3-1c-1-0.4-1.9-1-2.5-1.6s-1-1.6-1-2.7c0-1.6,0.6-2.9,1.9-4c1.2-1,3.1-1.5,5.6-1.5
			c2.5,0,4.5,0.6,5.9,1.7c1.3,1,1.9,2.3,2,3.9h-2.3c-0.2-1.6-1.3-2.7-3.2-3.3c-0.7-0.2-1.5-0.3-2.5-0.3c-1,0-1.9,0.1-2.6,0.3
			C241.6,338.8,241,339,240.6,339.4z"/>
		<path class="st2" d="M268.7,339.4c-0.4,0.3-0.6,0.7-0.8,1.1c-0.1,0.4-0.2,0.8-0.2,1.3c0,0.4,0.2,0.9,0.6,1.2
			c0.4,0.4,0.9,0.7,1.5,1c0.6,0.3,1.4,0.5,2.2,0.7c0.8,0.2,1.7,0.4,2.5,0.6c0.8,0.2,1.7,0.5,2.5,0.7c0.8,0.3,1.5,0.6,2.2,1
			c1.4,0.9,2.1,2.1,2.1,3.7c0,1.9-0.7,3.3-2.1,4.3c-1.4,1-3.3,1.5-5.8,1.5c-2.8,0-4.9-0.6-6.4-1.7c-1.3-1-2-2.5-2.2-4.4h2.3
			c0.1,1.4,0.7,2.4,2,3.1c1.1,0.6,2.5,0.9,4.3,0.9c3.7,0,5.6-1.2,5.6-3.5c0-0.8-0.3-1.4-1-1.9c-0.7-0.5-1.5-0.8-2.5-1.1
			c-1-0.3-2.1-0.6-3.3-0.8s-2.3-0.6-3.3-1c-1-0.4-1.9-1-2.5-1.6s-1-1.6-1-2.7c0-1.6,0.6-2.9,1.9-4c1.2-1,3.1-1.5,5.6-1.5
			c2.5,0,4.5,0.6,5.9,1.7c1.3,1,1.9,2.3,2,3.9h-2.3c-0.2-1.6-1.3-2.7-3.2-3.3c-0.7-0.2-1.5-0.3-2.5-0.3c-1,0-1.9,0.1-2.6,0.3
			C269.6,338.8,269.1,339,268.7,339.4z"/>
	</g>
</g>
</svg>
