<?xml version="1.0" encoding="utf-8"?>
<!-- Generator: Adobe Illustrator 19.1.0, SVG Export Plug-In . SVG Version: 6.00 Build 0)  -->
<svg version="1.1" id="Layer_1" xmlns="http://www.w3.org/2000/svg" xmlns:xlink="http://www.w3.org/1999/xlink" x="0px" y="0px"
	 viewBox="0 0 538 338" style="enable-background:new 0 0 538 338;" xml:space="preserve">
<style type="text/css">
	.st0{fill:#FFFFFF;}
	.st1{fill:#3D55A5;}
</style>
<g>
	<g>
		<path class="st0" d="M269,194.8c-9,0-17.8-1.8-26-5.3c-8-3.4-15.1-8.2-21.3-14.3c-6.1-6.1-11-13.3-14.3-21.3
			c-3.5-8.2-5.3-17-5.3-26c0-11.3,3.5-23.7,10.3-36.6c5.4-10.2,12.8-20.8,22.1-31.6c15.8-18.3,31.3-30.5,32-31l2.4-1.9l2.4,1.9
			c0.7,0.5,16.2,12.8,32,31c9.3,10.8,16.8,21.4,22.1,31.6c6.8,13,10.3,25.3,10.3,36.6c0,9-1.8,17.8-5.3,26
			c-3.4,8-8.2,15.1-14.3,21.3c-6.1,6.1-13.3,11-21.3,14.3C286.8,193.1,278,194.8,269,194.8z M269,37c-5,4.2-16.8,14.5-28.5,28.1
			c-8.9,10.3-16,20.4-21.1,30.1c-6.2,11.8-9.3,22.9-9.3,32.9c0,15.7,6.1,30.5,17.3,41.7c11.1,11.1,25.9,17.3,41.7,17.3
			c15.7,0,30.5-6.1,41.7-17.3c11.1-11.1,17.3-25.9,17.3-41.7c0-10-3.2-21.1-9.4-33c-5.1-9.7-12.2-19.8-21.1-30.1
			C285.8,51.4,274,41.1,269,37z"/>
		<path class="st1" d="M328.6,108.4"/>
		<path class="st0" d="M262.2,190.9L262.2,190.9L265,31.8l7.9,0.1l-2.9,159C270.1,190.9,262.2,190.8,262.2,190.9z"/>
		
			<rect x="295" y="96.7" transform="matrix(0.4056 0.9141 -0.9141 0.4056 298.048 -194.9717)" class="st0" width="7.9" height="70"/>
		
			<rect x="287.7" y="67.3" transform="matrix(0.4056 0.9141 -0.9141 0.4056 259.5106 -210.5384)" class="st0" width="7.9" height="54"/>
	</g>
	<g>
		<g>
			<g>
				<path class="st0" d="M131,309c-2.4,0-3.6-0.7-3.6-2s0.8-2,2.4-2c2.4,0,4.1-0.4,5.1-1.1c2-1.4,3.1-3.8,3.4-7.3
					c0.1-0.8,0.2-2,0.3-3.7c0.1-1.6,0.2-3.6,0.3-5.8c0.1-2.2,0.3-4.6,0.4-7.3c0.1-2.7,0.2-5.4,0.4-8.2c0.1-2.8,0.3-5.6,0.4-8.5
					c0.1-2.8,0.2-5.5,0.3-8.1c0.2-6.4,0.3-10.4,0.3-12.1s-0.1-3-0.4-4c-0.2-1-0.6-1.7-1.1-2.4c-0.8-1.1-2.2-1.7-4.1-2
					c-3.3-0.5-4.9-1.2-4.9-2.1c0-0.6,0.2-1.2,0.7-1.6c0.5-0.4,1.1-0.6,1.9-0.6l9,0.8l5.1-0.2c0.9,0,1.7,0.4,2.3,1.2
					c0.6,0.8,1.3,1.9,2.1,3.5l27.8,57.6c0.7-1.5,1.5-3.5,2.6-5.9c1.1-2.4,2.2-5.2,3.5-8.1c1.3-3,2.6-6.1,4.1-9.5
					c1.5-3.3,2.9-6.6,4.3-9.9c1.4-3.3,2.8-6.4,4.1-9.5s2.4-5.7,3.4-8.1c1-2.4,1.8-4.3,2.5-5.8c0.7-1.5,1.1-2.6,1.3-3.2
					c0.2-0.6,0.7-1.2,1.5-1.8c0.7-0.5,1.6-0.8,2.6-0.8l5.4,0.2l6.9-0.5c2.9,0,4.3,0.7,4.3,2.1c0,0.7-0.6,1.2-1.9,1.4
					c-1.3,0.2-2.3,0.5-3.2,0.7c-0.9,0.2-1.7,0.5-2.5,0.9c-1.8,1-2.6,2.5-2.6,4.8l2.9,56.2c0.3,4.9,2.2,7.7,5.6,8.4
					c1,0.2,1.9,0.2,2.8,0.2c1.6,0,2.5,0.7,2.5,2s-1.2,2-3.6,2c-1,0-1.8,0-2.5-0.1c-0.7-0.1-1.4-0.2-2.1-0.3
					c-2.1-0.3-3.9-0.5-5.6-0.5L203,309c-2.5,0-3.7-0.7-3.7-2.1c0-1.2,0.9-1.8,2.7-1.8c1.8,0,3.1-0.1,3.9-0.4
					c0.8-0.3,1.4-0.7,1.8-1.3c0.5-0.9,0.8-3.1,0.8-6.5v-5.4c0-2.6-0.2-7.9-0.6-15.8c-0.4-8-0.7-13.6-0.8-17
					c-0.3-7.2-0.6-12.6-0.9-16.4l-27.1,62.2c-1,2.3-1.9,3.4-2.7,3.4c-0.5,0-1-0.3-1.3-0.8c-0.4-0.6-0.9-1.4-1.5-2.7l-27.8-57.2
					c-1.5,19.5-2.2,37.3-2.2,53.4c0,3.1,2.5,4.7,7.6,4.7c1.4,0,2.1,0.6,2.1,1.7c0,1.4-1.2,2.1-3.7,2.1l-9.3-0.9
					c-2,0-3.8,0.1-5.5,0.4S131.8,309,131,309z"/>
				<path class="st0" d="M251.4,309c-2.1,0-3.2-0.7-3.2-2.1c0-1.1,0.7-1.7,2.1-1.7l2.8,0.3c2.1,0,3.6-0.9,4.4-2.8
					c0.8-2.1,1.3-6.3,1.3-12.6v-40.7c0-6.3-0.3-10.2-0.9-11.9c-0.6-1.6-1.3-2.6-2-3.1c-0.7-0.4-1.6-0.6-2.8-0.6l-2.8,0.2
					c-1.4,0-2.1-0.6-2.1-1.7c0-1.4,1-2.1,3.1-2.1s3.7,0,5.1,0.1c1.3,0.1,2.6,0.2,4,0.3c3.6,0.3,6.4,0.5,8.4,0.5s4.2,0,6.5-0.1
					c2.3-0.1,4.9-0.2,7.7-0.3c7.5-0.3,12.6-0.5,15.5-0.5c2.9,0,4.5,0.2,4.8,0.5c0.3,0.3,0.5,0.8,0.5,1.4c0,0.6,0,1.2,0,1.7
					c0,0.5,0,1.1-0.1,1.8c0,0.9-0.2,2.2-0.3,3.9c-0.2,1.7-0.4,2.9-0.7,3.5c-0.3,0.6-0.7,0.9-1.1,0.9s-0.8-0.1-1-0.4
					c-0.2-0.2-0.5-0.8-0.8-1.7c-0.3-0.9-0.9-1.8-1.7-2.6c-0.8-0.8-2.1-1.5-3.9-2c-3.4-1-9.8-1.5-19.1-1.5h-5.1
					c-0.9,0-1.5,0.1-1.8,0.4c-0.2,0.3-0.4,0.9-0.4,1.8v24.2c4.6,0.5,8.3,0.8,11.3,0.8c3,0,5.1,0,6.4-0.1c1.3,0,2.3-0.2,3.2-0.3
					c1.5-0.3,2.6-0.9,3.2-2c1.3-2,2.4-3,3.2-3c1,0,1.5,0.5,1.5,1.6l-2,8.1l0.2,4.4c0,2.8-0.7,4.1-2,4.1c-1.1,0-1.7-0.7-1.7-2.2
					c0-1.5-0.1-2.6-0.3-3.3c-0.2-0.7-0.7-1.3-1.5-1.7c-1.2-0.6-4.2-0.9-9-0.9s-9,0.2-12.8,0.6v13.6c0,8.5,0.2,15.4,0.6,20.9
					c3.1,0.7,6.5,1,10.1,1c3.6,0,6.7-0.1,9.3-0.3c2.6-0.2,4.8-0.6,6.7-1.1c3.7-1.1,6.4-3.2,8.2-6.4c0.8-1.4,1.5-2.1,2.3-2.1
					c0.8,0,1.1,0.6,1.1,1.7c0,0.5-0.1,1.1-0.4,1.8c-0.3,1-0.7,2.5-1.3,4.4s-1,3.4-1.3,4.3c-0.3,0.9-0.7,1.5-1,2
					c-0.6,0.8-1.7,1.1-3.4,1.1c-1.7,0-3.3,0-4.9,0c-1.6,0-3.2,0-4.9-0.1c-2-0.1-5.1-0.2-9.2-0.5c-10.4-0.5-16.5-0.7-18.3-0.5
					c-1.8,0.2-3.2,0.3-4.1,0.4c-0.9,0.1-1.8,0.2-2.7,0.3C253.6,308.9,252.5,309,251.4,309z"/>
				<path class="st0" d="M330.2,309c-2.5,0-3.7-0.7-3.7-2.1c0-1.1,0.7-1.7,2.1-1.7l2.8,0.3c2.3,0,3.8-1.3,4.6-3.8
					c0.7-2.2,1-6.1,1-11.7v-40.4c0-5.7-0.3-9.3-0.8-11c-0.5-1.7-1.2-2.9-1.9-3.5c-0.7-0.6-1.7-0.9-2.9-0.9l-2.8,0.3
					c-1.4,0-2.1-0.6-2.1-1.7c0-1.5,1.2-2.2,3.7-2.2l7.5,0.9c1.6,0,3-0.1,4.3-0.3l52.9,61.5v-42.9c0-5.6-0.3-9.3-0.9-11
					c-0.6-1.8-1.3-3-2-3.6c-0.8-0.6-1.8-0.9-3-0.9l-2.8,0.2c-1.4,0-2.1-0.6-2.1-1.7c0-1.4,1.2-2.1,3.7-2.1c1,0,2.2,0.1,3.8,0.4
					c2,0.3,3.9,0.5,5.5,0.5c1.6,0,3.3-0.2,4.8-0.5c1.6-0.3,3.4-0.5,5.5-0.5c2.1,0,3.2,0.7,3.2,2.1c0,1.1-0.7,1.7-2.1,1.7l-2.8-0.2
					c-2.3,0-3.9,1.3-4.6,3.8c-0.7,2-1,5.9-1,11.7v58c0,1.3-0.1,2.2-0.3,2.6c-0.2,0.4-0.6,0.6-1.1,0.6c-0.7,0-1.8-0.8-3.3-2.4
					l-52.9-61.3v43c0,5.8,0.3,9.5,0.8,11.2c0.5,1.7,1.1,2.8,1.9,3.4c0.7,0.6,1.7,0.9,3,0.9l2.8-0.3c1.4,0,2.1,0.6,2.1,1.7
					c0,1.4-1.1,2.1-3.3,2.1s-4.2-0.1-5.9-0.4c-1.7-0.3-3.4-0.4-5-0.4c-1.6,0-3.2,0.1-4.7,0.4C332.6,308.9,331.3,309,330.2,309z"/>
			</g>
		</g>
	</g>
</g>
</svg>
