<?xml version="1.0" encoding="utf-8"?>
<!-- Generator: Adobe Illustrator 19.1.0, SVG Export Plug-In . SVG Version: 6.00 Build 0)  -->
<svg version="1.1" id="Layer_1" xmlns="http://www.w3.org/2000/svg" xmlns:xlink="http://www.w3.org/1999/xlink" x="0px" y="0px"
	 viewBox="0 0 538 338" style="enable-background:new 0 0 538 338;" xml:space="preserve">
<style type="text/css">
	.st0{fill:#FFFFFF;}
	.st1{fill:#3D55A5;}
</style>
<g>
	<g>
		<path class="st0" d="M274.8,194.8c-9,0-17.8-1.8-26-5.3c-8-3.4-15.1-8.2-21.3-14.3c-6.1-6.1-11-13.3-14.3-21.3
			c-3.5-8.2-5.3-17-5.3-26c0-11.3,3.5-23.7,10.3-36.6c5.4-10.2,12.8-20.8,22.1-31.6c15.8-18.3,31.3-30.5,32-31l2.4-1.9l2.4,1.9
			c0.7,0.5,16.2,12.8,32,31c9.3,10.8,16.8,21.4,22.1,31.6c6.8,13,10.3,25.3,10.3,36.6c0,9-1.8,17.8-5.3,26
			c-3.4,8-8.2,15.1-14.3,21.3c-6.1,6.1-13.3,11-21.3,14.3C292.6,193.1,283.8,194.8,274.8,194.8z M274.8,37
			c-5,4.2-16.8,14.5-28.5,28.1c-8.9,10.3-16,20.4-21.1,30.1c-6.2,11.8-9.3,22.9-9.3,32.9c0,15.7,6.1,30.5,17.3,41.7
			c11.1,11.1,25.9,17.3,41.7,17.3c15.7,0,30.5-6.1,41.7-17.3c11.1-11.1,17.3-25.9,17.3-41.7c0-10-3.2-21.1-9.4-33
			c-5.1-9.7-12.2-19.8-21.1-30.1C291.5,51.4,279.8,41.1,274.8,37z"/>
		<path class="st1" d="M334.4,108.4"/>
		<path class="st0" d="M268,190.9L268,190.9l2.9-159.1l7.9,0.1l-2.9,159C275.9,190.9,268,190.8,268,190.9z"/>
		
			<rect x="300.8" y="96.7" transform="matrix(0.4056 0.9141 -0.9141 0.4056 301.4902 -200.2648)" class="st0" width="7.9" height="70"/>
		
			<rect x="293.5" y="67.3" transform="matrix(0.4056 0.9141 -0.9141 0.4056 262.9528 -215.8315)" class="st0" width="7.9" height="54"/>
	</g>
	<g>
		<g>
			<g>
				<path class="st0" d="M121.5,230.3c2.4,0,3.6,0.7,3.6,2s-0.8,2-2.4,2c-2,0-3.4,0.4-4.4,1.3c-1.5,1.4-2.9,3.8-4.2,7.3l-24.6,64.6
					c-1,2.4-1.9,3.6-2.8,3.6c-1.1,0-2.1-1.4-3.1-4.1l-13.5-39.9l-16.9,40.4c-1,2.4-1.8,3.6-2.6,3.6c-1,0-2-1.4-3.1-4.1l-26.7-63.9
					c-1.6-3.7-2.8-5.9-3.6-6.8c-1.3-1.4-2.8-2.1-4.5-2.1c-1.7,0-2.6-0.7-2.6-2.1c0-0.5,0.3-1,0.9-1.4c0.6-0.4,1.5-0.6,2.5-0.6
					c1.1,0,2,0,2.6,0.1c0.7,0.1,1.4,0.2,2.1,0.3c1.9,0.3,3.8,0.5,5.7,0.5l9.9-0.9c2.5,0,3.7,0.7,3.7,2c0,0.5-0.2,1-0.6,1.4
					c-0.4,0.4-1.1,0.6-2.2,0.6c-1,0-1.9,0.1-2.6,0.2c-0.7,0.1-1.3,0.3-1.6,0.6c-0.6,0.4-0.9,1-0.9,2c0,2,0.8,4.7,2.3,8.4l20.8,50
					l14.7-35.6l-5.4-16c-1.3-3.7-2.5-6.1-3.6-7.1c-1.7-1.5-3.6-2.3-5.7-2.3c-2.1-0.1-3.1-0.8-3.1-2.1c0-0.5,0.3-1,0.9-1.4
					c0.6-0.4,1.5-0.6,2.5-0.6c1.1,0,2,0,2.6,0.1c0.7,0.1,1.4,0.2,2.1,0.3c1.9,0.3,3.8,0.5,5.7,0.5l12.7-0.9c2.5,0,3.7,0.6,3.7,1.9
					s-1,1.9-3.1,1.9c-4,0-6,1.2-6,3.7c0,2.3,0.8,5.6,2.3,10l16.1,47.1l17.7-49.3c1.1-3.1,1.7-5.4,1.7-6.8c0-3.1-2.4-4.7-7.1-4.7
					c-1.6,0-2.5-0.6-2.5-1.9s1.2-1.9,3.7-1.9c1.2,0,2.6,0.2,4.2,0.5c1.5,0.3,3.5,0.5,5.7,0.5L121.5,230.3z"/>
				<path class="st0" d="M143.8,269.3c0-5.8,1.1-11.1,3.2-15.9c2.2-4.8,5.1-9,8.8-12.5s8-6.2,12.8-8.1c4.9-1.9,10.1-2.9,15.7-2.9
					c5.6,0,10.8,1,15.7,3.1c4.8,2,9,4.9,12.4,8.5c7.2,7.6,10.8,17.3,10.8,29c0,11.1-3.7,20.4-11.2,27.8c-7.6,7.6-17.3,11.4-29,11.4
					c-11.5,0-20.9-3.8-28.4-11.5C147.4,290.5,143.8,280.9,143.8,269.3z M153.6,266c0,5,0.8,9.9,2.4,14.7c1.6,4.8,3.9,9,6.9,12.5
					c6.4,7.7,14.5,11.6,24.2,11.6c7.5,0,13.7-2.8,18.5-8.5c5-5.8,7.5-13.5,7.5-23c0-11.2-3-20.5-9-27.9c-6-7.3-13.5-10.9-22.7-10.9
					c-7.5,0-14,2.9-19.5,8.6C156.4,249.1,153.6,256.8,153.6,266z"/>
				<path class="st0" d="M248.1,309c-2.4,0-3.6-0.7-3.6-2s0.8-2,2.4-2c2.4,0,4.1-0.4,5.1-1.1c2-1.4,3.1-3.8,3.4-7.3
					c0.1-0.8,0.2-2,0.3-3.7c0.1-1.6,0.2-3.6,0.3-5.8c0.1-2.2,0.3-4.6,0.4-7.3c0.1-2.7,0.2-5.4,0.4-8.2c0.1-2.8,0.3-5.6,0.4-8.5
					c0.1-2.8,0.2-5.5,0.3-8.1c0.2-6.4,0.3-10.4,0.3-12.1s-0.1-3-0.4-4c-0.2-1-0.6-1.7-1.1-2.4c-0.8-1.1-2.2-1.7-4.1-2
					c-3.3-0.5-4.9-1.2-4.9-2.1c0-0.6,0.2-1.2,0.7-1.6c0.5-0.4,1.1-0.6,1.9-0.6l9,0.8l5.1-0.2c0.9,0,1.7,0.4,2.3,1.2
					c0.6,0.8,1.3,1.9,2.1,3.5l27.8,57.6c0.7-1.5,1.5-3.5,2.6-5.9c1.1-2.4,2.2-5.2,3.5-8.1c1.3-3,2.6-6.1,4.1-9.5
					c1.5-3.3,2.9-6.6,4.3-9.9c1.4-3.3,2.8-6.4,4.1-9.5s2.4-5.7,3.4-8.1c1-2.4,1.8-4.3,2.5-5.8c0.7-1.5,1.1-2.6,1.3-3.2
					c0.2-0.6,0.7-1.2,1.5-1.8c0.7-0.5,1.6-0.8,2.6-0.8l5.4,0.2l6.9-0.5c2.9,0,4.3,0.7,4.3,2.1c0,0.7-0.6,1.2-1.9,1.4
					c-1.3,0.2-2.3,0.5-3.2,0.7c-0.9,0.2-1.7,0.5-2.5,0.9c-1.8,1-2.6,2.5-2.6,4.8l2.9,56.2c0.3,4.9,2.2,7.7,5.6,8.4
					c1,0.2,1.9,0.2,2.8,0.2c1.6,0,2.5,0.7,2.5,2s-1.2,2-3.6,2c-1,0-1.8,0-2.5-0.1c-0.7-0.1-1.4-0.2-2.1-0.3
					c-2.1-0.3-3.9-0.5-5.6-0.5l-12.2,0.9c-2.5,0-3.7-0.7-3.7-2.1c0-1.2,0.9-1.8,2.7-1.8c1.8,0,3.1-0.1,3.9-0.4
					c0.8-0.3,1.4-0.7,1.8-1.3c0.5-0.9,0.8-3.1,0.8-6.5v-5.4c0-2.6-0.2-7.9-0.6-15.8c-0.4-8-0.7-13.6-0.8-17
					c-0.3-7.2-0.6-12.6-0.9-16.4l-27.1,62.2c-1,2.3-1.9,3.4-2.7,3.4c-0.5,0-1-0.3-1.3-0.8c-0.4-0.6-0.9-1.4-1.5-2.7L263,247.1
					c-1.5,19.5-2.2,37.3-2.2,53.4c0,3.1,2.5,4.7,7.6,4.7c1.4,0,2.1,0.6,2.1,1.7c0,1.4-1.2,2.1-3.7,2.1l-9.3-0.9
					c-2,0-3.8,0.1-5.5,0.4S249,309,248.1,309z"/>
				<path class="st0" d="M368.5,309c-2.1,0-3.2-0.7-3.2-2.1c0-1.1,0.7-1.7,2.1-1.7l2.8,0.3c2.1,0,3.6-0.9,4.4-2.8
					c0.8-2.1,1.3-6.3,1.3-12.6v-40.7c0-6.3-0.3-10.2-0.9-11.9c-0.6-1.6-1.3-2.6-2-3.1c-0.7-0.4-1.6-0.6-2.8-0.6l-2.8,0.2
					c-1.4,0-2.1-0.6-2.1-1.7c0-1.4,1-2.1,3.1-2.1s3.7,0,5.1,0.1c1.3,0.1,2.6,0.2,4,0.3c3.6,0.3,6.4,0.5,8.4,0.5s4.2,0,6.5-0.1
					c2.3-0.1,4.9-0.2,7.7-0.3c7.5-0.3,12.6-0.5,15.5-0.5c2.9,0,4.5,0.2,4.8,0.5c0.3,0.3,0.5,0.8,0.5,1.4c0,0.6,0,1.2,0,1.7
					c0,0.5,0,1.1-0.1,1.8c0,0.9-0.2,2.2-0.3,3.9c-0.2,1.7-0.4,2.9-0.7,3.5c-0.3,0.6-0.7,0.9-1.1,0.9s-0.8-0.1-1-0.4
					c-0.2-0.2-0.5-0.8-0.8-1.7c-0.3-0.9-0.9-1.8-1.7-2.6c-0.8-0.8-2.1-1.5-3.9-2c-3.4-1-9.8-1.5-19.1-1.5H387
					c-0.9,0-1.5,0.1-1.8,0.4c-0.2,0.3-0.4,0.9-0.4,1.8v24.2c4.6,0.5,8.3,0.8,11.3,0.8c3,0,5.1,0,6.4-0.1c1.3,0,2.3-0.2,3.2-0.3
					c1.5-0.3,2.6-0.9,3.2-2c1.3-2,2.4-3,3.2-3c1,0,1.5,0.5,1.5,1.6l-2,8.1l0.2,4.4c0,2.8-0.7,4.1-2,4.1c-1.1,0-1.7-0.7-1.7-2.2
					c0-1.5-0.1-2.6-0.3-3.3c-0.2-0.7-0.7-1.3-1.5-1.7c-1.2-0.6-4.2-0.9-9-0.9s-9,0.2-12.8,0.6v13.6c0,8.5,0.2,15.4,0.6,20.9
					c3.1,0.7,6.5,1,10.1,1c3.6,0,6.7-0.1,9.3-0.3c2.6-0.2,4.8-0.6,6.7-1.1c3.7-1.1,6.4-3.2,8.2-6.4c0.8-1.4,1.5-2.1,2.3-2.1
					c0.8,0,1.1,0.6,1.1,1.7c0,0.5-0.1,1.1-0.4,1.8c-0.3,1-0.7,2.5-1.3,4.4s-1,3.4-1.3,4.3c-0.3,0.9-0.7,1.5-1,2
					c-0.6,0.8-1.7,1.1-3.4,1.1c-1.7,0-3.3,0-4.9,0c-1.6,0-3.2,0-4.9-0.1c-2-0.1-5.1-0.2-9.2-0.5c-10.4-0.5-16.5-0.7-18.3-0.5
					c-1.8,0.2-3.2,0.3-4.1,0.4c-0.9,0.1-1.8,0.2-2.7,0.3C370.7,308.9,369.7,309,368.5,309z"/>
				<path class="st0" d="M447.4,309c-2.5,0-3.7-0.7-3.7-2.1c0-1.1,0.7-1.7,2.1-1.7l2.8,0.3c2.3,0,3.8-1.3,4.6-3.8
					c0.7-2.2,1-6.1,1-11.7v-40.4c0-5.7-0.3-9.3-0.8-11c-0.5-1.7-1.2-2.9-1.9-3.5c-0.7-0.6-1.7-0.9-2.9-0.9l-2.8,0.3
					c-1.4,0-2.1-0.6-2.1-1.7c0-1.5,1.2-2.2,3.7-2.2l7.5,0.9c1.6,0,3-0.1,4.3-0.3l52.9,61.5v-42.9c0-5.6-0.3-9.3-0.9-11
					c-0.6-1.8-1.3-3-2-3.6c-0.8-0.6-1.8-0.9-3-0.9l-2.8,0.2c-1.4,0-2.1-0.6-2.1-1.7c0-1.4,1.2-2.1,3.7-2.1c1,0,2.2,0.1,3.8,0.4
					c2,0.3,3.9,0.5,5.5,0.5c1.6,0,3.3-0.2,4.8-0.5c1.6-0.3,3.4-0.5,5.5-0.5c2.1,0,3.2,0.7,3.2,2.1c0,1.1-0.7,1.7-2.1,1.7l-2.8-0.2
					c-2.3,0-3.9,1.3-4.6,3.8c-0.7,2-1,5.9-1,11.7v58c0,1.3-0.1,2.2-0.3,2.6c-0.2,0.4-0.6,0.6-1.1,0.6c-0.7,0-1.8-0.8-3.3-2.4
					l-52.9-61.3v43c0,5.8,0.3,9.5,0.8,11.2c0.5,1.7,1.1,2.8,1.9,3.4c0.7,0.6,1.7,0.9,3,0.9l2.8-0.3c1.4,0,2.1,0.6,2.1,1.7
					c0,1.4-1.1,2.1-3.3,2.1s-4.2-0.1-5.9-0.4c-1.7-0.3-3.4-0.4-5-0.4c-1.6,0-3.2,0.1-4.7,0.4C449.7,308.9,448.4,309,447.4,309z"/>
			</g>
		</g>
	</g>
</g>
</svg>
