<svg xmlns="http://www.w3.org/2000/svg" width="300" height="83.3" viewBox="240 -111.7 300 83.3" enable-background="new 240 -111.7 300 83.3"><path opacity=".06" fill="#231F20" enable-background="new" d="M526.5-67.9v-10.4h-1v-1h1v-2.1h-2.1v-1l-3.1-3.1-3.1 3.1v1H516v2.1h1v1h-1v10.4h-4.2v-35.4h-1v-2.1h-1l-2.1-2.1-2.1 2.1h-1v2.1h-1v8.3H491v-8.3h-1v-2.1h-1l-2.1-2.1-2.1 2.1h-1v2.1h-1v43.7h-8.3v-8.3h-2.1V-70h-5.2l-4.2-4.2h-20.8L438-70h-5.2v2.1h-2.1v8.3h-29.2v-6.2h-8.3v-2.1h-22.9v6.2h-14.6v-6.2h-10.4v-18.8h-2.1v-2.1H341c0-3.9-2.6-7.1-6.2-8.1v-2.4h-1.6v-6.2h-1v6.2h-1.6v2.4c-3.6.9-6.2 4.2-6.2 8.1h-2.1v2.1h-2.1v12.5H289v-29.2h-2.1v-4.2h-4.2l-4.2-4.2-4.2 4.2h-4.2v4.2H268v12.5h-14.6v8.3h-4.2v54.2h281.2V-68h-3.9z"/><path fill="#70C196" d="M494.6-28.3H524V-40c-11.4 0-21.7 4.4-29.4 11.7z"/><path fill="#4DADC1" d="M240-54.2h16.7v20H240v-20z"/><path opacity=".35" fill="#EDE9DD" enable-background="new" d="M250-34.2l5.8 5.8h.8v-4.2l-1.7-1.7H250z"/><path fill="#258998" d="M240.8-54.2h.8v20h-.8v-20zm3.4 0h.8v20h-.8v-20zm3.3 0h.8v20h-.8v-20zm3.3 0h.8v20h-.8v-20zm3.4 0h.8v20h-.8v-20z"/><path opacity=".35" fill="#EDE9DD" enable-background="new" d="M241.7-54.2l15 15v-.8l-14.2-14.2h-.8zm3.3 0l11.7 11.7v-1.7l-10-10H245z"/><path fill="#EDE9DD" d="M240-54.2h.8v20.8h-.8v-20.8zm3.3 0h.8v20.8h-.8v-20.8zm3.4 0h.8v20.8h-.8v-20.8zm3.3 0h.8v20.8h-.8v-20.8zm3.3 0h.8v20.8h-.8v-20.8z"/><path fill="#258998" d="M240-34.2h16.7v5.8H240v-5.8z"/><path opacity=".35" fill="#EDE9DD" enable-background="new" d="M240-50v5l10.8 10.8h5L240-50z"/><path fill="#258998" d="M240-54.2h16.7v.8H240v-.8z"/><path fill="#585A5B" d="M240-56.7h16.7v2.5H240v-2.5z"/><path fill="#0A6D7A" d="M240-34.2h16.7v1.7H240v-1.7z"/><path fill="#DA613A" d="M430.8-73.3h3.3v44.2h-3.3v-44.2zm10 0h3.3v44.2h-3.3v-44.2z"/><path fill="#EDE9DD" d="M434.2-71.7h6.7v.8h-6.7v-.8z"/><path fill="#D8D5CA" d="M434.2-70.8h6.7v4.2h-6.7v-4.2z"/><path fill="#EDE9DD" d="M437.5-70c-1.8 0-3.3 1.5-3.3 3.3h6.7c-.1-1.8-1.6-3.3-3.4-3.3z"/><path fill="#585A5B" d="M437.5-69.2c-1.4 0-2.5 1.1-2.5 2.5h5c0-1.3-1.1-2.5-2.5-2.5z"/><path fill="#EDE9DD" d="M434.2-66.7h6.7v.8h-6.7v-.8zm0 .9h6.7v1.7h-6.7v-1.7z"/><path fill="#D8D5CA" d="M434.2-65.8h6.7v.8h-6.7v-.8z"/><path fill="#B24526" d="M434.2-64.2h6.7v35h-6.7v-35z"/><path fill="#85331D" d="M434.2-64.2h.8v35h-.8v-35zm2 12.1l-.4-.4 1.3-1.1.2.9-1.1.6z"/><g fill="#85331D"><path d="M436.2-57.9h3.3v5h-3.3v-5z"/><circle cx="437.9" cy="-57.9" r="1.7"/><path d="M436.2-52.9h3.3v.8h-3.3v-.8z"/></g><path fill="#ACABA3" d="M435.8-58.3h3.3v5h-3.3v-5z"/><circle fill="#ACABA3" cx="437.5" cy="-58.3" r="1.7"/><path fill="#EDE9DD" d="M435.8-53.3h3.3v.8h-3.3v-.8z"/><g fill="#585A5B"><circle cx="437.5" cy="-58.3" r=".8"/><path d="M436.7-58.3h1.7v5h-1.7v-5z"/></g><path fill="#B24526" d="M442.5-64.2h1.7v.8h-1.7v-.8zm-.8 1.3h1.7v.8h-1.7v-.8zm0-2.5h1.7v.8h-1.7v-.8zm2.1 0h.4v.8h-.4v-.8zm-13 11.6h1.7v.8h-1.7v-.8zm0 2.6h1.7v.8h-1.7v-.8zm2.1-2.6h1.2v.8h-1.2v-.8zm-1.2 1.3h1.7v.8h-1.7v-.8zm0-2.5h1.7v.8h-1.7v-.8zm-.9 0h.4v.8h-.4v-.8zm0 2.5h.4v.8h-.4v-.8z"/><path fill="#85331D" d="M439.2-42.5h1.7v.8h-1.7v-.8zm0-2.5h1.7v.8h-1.7v-.8zm-.9 1.2h1.7v.8h-1.7v-.8zm2.1 0h.4v.8h-.4v-.8z"/><path fill="#B24526" d="M434.2-73.3h6.7v1.7h-6.7v-1.7z"/><path fill="#85331D" d="M434.2-73.3h6.7v.8h-6.7v-.8zm0 0h.8v1.7h-.8v-1.7z"/><path fill="#D8D5CA" d="M434.2-75h6.7v1.7h-6.7V-75z"/><path fill="#ACABA3" d="M434.2-74.4h6.7v.4h-6.7v-.4z"/><path fill="#EDE9DD" d="M430.8-73.3h3.3V-75H430l.8 1.7zm13.4 0h-3.3V-75h4.2l-.9 1.7zM430-75.8h15v.8h-15v-.8z"/><path fill="#ACABA3" d="M434.2-75h.8v1.7h-.8V-75z"/><path fill="#DA613A" d="M442.5-85.8h2.5v10h-2.5v-10zm-12.5 0h2.5v10H430v-10z"/><path fill="#B24526" d="M432.5-85.8h10v10h-10v-10z"/><circle fill="#85331D" cx="437.9" cy="-80.4" r="4.2"/><circle fill="#EDE9DD" cx="437.5" cy="-80.8" r="4.2"/><circle fill="#D8D5CA" cx="437.5" cy="-80.8" r="3.3"/><path fill="#ACABA3" d="M434.6-80.4c0-1.8 1.5-3.3 3.3-3.3.8 0 1.6.3 2.1.8-.6-.7-1.5-1.2-2.6-1.2-1.8 0-3.3 1.5-3.3 3.3 0 1 .5 1.9 1.2 2.6-.4-.7-.7-1.4-.7-2.2z"/><circle fill="#585A5B" cx="437.5" cy="-80.8" r=".4"/><path fill="#85331D" d="M432.5-85.8h.8v10h-.8v-10zm0 0h10v.8h-10v-.8z"/><path fill="#585A5B" d="M439.2-80.6h-1.9v-2.7h.4v2.3h1.5v.4z"/><path fill="#D8D5CA" d="M429.2-86.7h16.7v.8h-16.7v-.8z"/><path fill="#EDE9DD" d="M445.8-88.3l-8.3-8.3-8.3 8.3h16.6z"/><path fill="#258998" d="M444.2-88.3l-6.7-6.7-6.7 6.7h13.4z"/><path fill="#EDE9DD" d="M432.3-90.8h.4v2.5h-.4v-2.5zm10 0h.4v2.5h-.4v-2.5zm-8.3-1.7h.4v4.2h-.4v-4.2zm6.6 0h.4v4.2h-.4v-4.2zm-5-1.7h.4v5.8h-.4v-5.8zm3.4 0h.4v5.8h-.4v-5.8zm-1.7-.8h.4v6.7h-.4V-95zm-9 6.7h18.3v.8h-18.3v-.8z"/><path fill="#ACABA3" d="M446.7-87.5l-.8.8h-16.7l-.8-.8h18.3z"/><path fill="#EDE9DD" d="M445.8-89.2h.8v.8h-.8v-.8zm-17.5 0h.8v.8h-.8v-.8z"/><circle fill="#EDE9DD" cx="428.8" cy="-89.6" r=".4"/><circle fill="#EDE9DD" cx="446.2" cy="-89.6" r=".4"/><path fill="#70C196" d="M439-28.3V-40c-11.4 0-21.7 4.4-29.4 11.7H439z"/><path fill="#31A480" d="M439-28.3V-40c11.4 0 21.7 4.4 29.4 11.7H439z"/><path fill="#258998" d="M492.5-28.3h-41.7v-25.8l21.7 1.7 20 5v19.1z"/><path fill="#D8D5CA" d="M494.2-47.5h.8v3.3h-.8v-3.3z"/><path fill="#EDE9DD" d="M477.5-44.2h18.3v15.8h-18.3v-15.8z"/><path fill="#D8D5CA" d="M495.2-28.3h-.4v-14.8h-16.2v14.8h-.4v-15.2h17.1v15.2z"/><path fill="#0A6D7A" d="M450.8-53.4v1.7h1.7c14 0 27.4 2.3 40 6.5V-47c-12.6-4.2-26-6.4-40-6.4h-1.7zm14.2.1h.8v5h-.8v-5zm14.2 3.3h.8v5.8h-.8V-50z"/><path fill="#EDE9DD" d="M447.5-49.2h18.3v20.8h-18.3v-20.8z"/><path fill="#D8D5CA" d="M465.2-28.3h-.4v-19.8h-16.2v19.8h-.4v-20.2h17.1v20.2z"/><path fill="#4DADC1" d="M450.8-46.7h11.7v3.3h-11.7v-3.3z"/><path fill="#258998" d="M460.6-46.7h.4v3.3h-.4v-3.3zm-1.6 0h.4v3.3h-.4v-3.3zm-1.7 0h.4v3.3h-.4v-3.3zm-1.7 0h.4v3.3h-.4v-3.3zm-1.6 0h.4v3.3h-.4v-3.3zm-1.7 0h.4v3.3h-.4v-3.3zm-1.5 0h11.7v.8h-11.7v-.8z"/><path fill="#4DADC1" d="M450.8-41.7h11.7v3.3h-11.7v-3.3z"/><path fill="#258998" d="M460.6-41.7h.4v3.3h-.4v-3.3zm-1.6 0h.4v3.3h-.4v-3.3zm-1.7 0h.4v3.3h-.4v-3.3zm-1.7 0h.4v3.3h-.4v-3.3zm-1.6 0h.4v3.3h-.4v-3.3zm-1.7 0h.4v3.3h-.4v-3.3zm-1.5 0h11.7v.8h-11.7v-.8z"/><path fill="#4DADC1" d="M450.8-36.7h11.7v3.3h-11.7v-3.3z"/><path fill="#258998" d="M460.6-36.7h.4v3.3h-.4v-3.3zm-1.6 0h.4v3.3h-.4v-3.3zm-1.7 0h.4v3.3h-.4v-3.3zm-1.7 0h.4v3.3h-.4v-3.3zm-1.6 0h.4v3.3h-.4v-3.3zm-1.7 0h.4v3.3h-.4v-3.3zm-1.5 0h11.7v.8h-11.7v-.8z"/><path fill="#4DADC1" d="M480.8-41.7h11.7v3.3h-11.7v-3.3z"/><path fill="#258998" d="M490.6-41.7h.4v3.3h-.4v-3.3zm-1.6 0h.4v3.3h-.4v-3.3zm-1.7 0h.4v3.3h-.4v-3.3zm-1.7 0h.4v3.3h-.4v-3.3zm-1.6 0h.4v3.3h-.4v-3.3zm-1.7 0h.4v3.3h-.4v-3.3zm-1.5 0h11.7v.8h-11.7v-.8z"/><path fill="#4DADC1" d="M480.8-36.7h11.7v3.3h-11.7v-3.3z"/><path fill="#258998" d="M490.6-36.7h.4v3.3h-.4v-3.3zm-1.6 0h.4v3.3h-.4v-3.3zm-1.7 0h.4v3.3h-.4v-3.3zm-1.7 0h.4v3.3h-.4v-3.3zm-1.6 0h.4v3.3h-.4v-3.3zm-1.7 0h.4v3.3h-.4v-3.3zm-1.5 0h11.7v.8h-11.7v-.8z"/><path fill="#4DADC1" d="M480.8-31.7h11.7v3.3h-11.7v-3.3z"/><path fill="#258998" d="M490.6-31.7h.4v3.3h-.4v-3.3zm-1.6 0h.4v3.3h-.4v-3.3zm-1.7 0h.4v3.3h-.4v-3.3zm-1.7 0h.4v3.3h-.4v-3.3zm-1.6 0h.4v3.3h-.4v-3.3zm-1.7 0h.4v3.3h-.4v-3.3zm-1.5 0h11.7v.8h-11.7v-.8z"/><path fill="#4DADC1" d="M450.8-31.7h11.7v3.3h-11.7v-3.3z"/><path fill="#258998" d="M460.6-31.7h.4v3.3h-.4v-3.3zm-1.6 0h.4v3.3h-.4v-3.3zm-1.7 0h.4v3.3h-.4v-3.3zm-1.7 0h.4v3.3h-.4v-3.3zm-1.6 0h.4v3.3h-.4v-3.3zm-1.7 0h.4v3.3h-.4v-3.3zm-1.5 0h11.7v.8h-11.7v-.8z"/><path opacity=".35" fill="#EDE9DD" enable-background="new" d="M450.8-45.8l2.5 2.5h2.5l-3.3-3.3h-1.7v.8zm5.9-.9l3.3 3.3h.8l-3.3-3.3h-.8zm-1.7 5l3.3 3.3h2.5l-3.3-3.3H455zm-4.2 7.5l.8.8h4.2l-3.3-3.3h-1.7v2.5z"/><path fill="#0A6D7A" d="M467.3-52.5h.4v24.2h-.4v-24.2zm-5 0h.4v3.3h-.4v-3.3zm18.3 3.3h.4v5h-.4v-5zm5 0h.4v5h-.4v-5zm5 2.5h.4v2.5h-.4v-2.5zm-33.3-5.8h.4v3.3h-.4v-3.3zm-5 0h.4v3.3h-.4v-3.3zm23.3 0h.4v24.2h-.4v-24.2z"/><path opacity=".35" fill="#EDE9DD" enable-background="new" d="M461.7-41.7l.8.8v-.8h-.8zm-4.2 10l3.3 3.3h-4.2l-3.3-3.3h4.2z"/><path fill="#D8D5CA" d="M448.3-53.3h.8v4.2h-.8v-4.2zm15.9 0h.8v4.2h-.8v-4.2z"/><path fill="#0A6D7A" d="M465.8-48.3h.8v20h-.8v-20zm0 11.4h11.7v.4h-11.7v-.4zm0-1.6h11.7v.4h-11.7v-.4zm6.9 10.2h-.4v-3.1H471v3.1h-.4v-3.5h2.1v3.5z"/><path opacity=".35" fill="#EDE9DD" enable-background="new" d="M465.8-40.8l11.7 11.7v-2.5l-11.7-11.7v2.5zm0-4.2l11.7 11.7v-.8l-11.7-11.7v.8zm-5.8-4.2l-4.2-4.2h-2.5l4.2 4.2h2.5zm-9.2-2.5l2.5 2.5h-1.7l-.8-.8v-1.7zm15 16.7l6.7 6.7h-1.7l-5-5V-35zm5.9-17.5l8.3 8.3h3.3l-7.5-7.5-4.1-.8z"/><path fill="#D8D5CA" d="M478.3-51.7h.8v7.5h-.8v-7.5z"/><path opacity=".35" fill="#EDE9DD" enable-background="new" d="M481.7-50l5.8 5.8h.8l-5.8-5.8h-.8z"/><path fill="#EDE9DD" d="M497.5-46.8c-14-5.3-29.1-8.2-45-8.2-2.2 0-4.5.1-6.7.2v1.7c2.2-.1 4.4-.2 6.7-.2 15.9 0 31 3 45 8.4v-1.9z"/><path opacity=".35" fill="#EDE9DD" enable-background="new" d="M480.8-41.7l3.3 3.3h3.3l-3.3-3.3h-3.3zm5 5l3.3 3.3h3.3l-3.3-3.3h-3.3zm-5 0l3.3 3.3h.8l-3.3-3.3h-.8zm5 5l3.3 3.3h.8l-3.3-3.3h-.8zm-5 0l3.3 3.3h1.7l-3.3-3.3h-1.7z"/><path fill="#B24526" d="M445.4-30.8h2.5v2.5h-2.5v-2.5z"/><path fill="#DA613A" d="M446.2-30.8h.8v2.5h-.8v-2.5z"/><path fill="#85331D" d="M447.9-30.8h1.7v2.5h-1.7v-2.5z"/><path fill="#B24526" d="M445-31.7h5v.8h-5v-.8z"/><path fill="#85331D" d="M445.4-30.8h2.5v.8h-2.5v-.8z"/><path fill="#70C196" d="M447.5-37.5c-1.2.8-1.9 2.2-1.9 3.9 0 1.1.9 1.9 1.9 1.9 1.1 0 1.9-.9 1.9-1.9.1-1.7-.7-3.1-1.9-3.9z"/><path fill="#31A480" d="M447.5-37.5v5.8c1.1 0 1.9-.9 1.9-1.9.1-1.7-.7-3.1-1.9-3.9zm-1.1 4.2c0 .2.2.4.4.4 0-.2-.2-.4-.4-.4zm.8-2.1c-.2 0-.4.2-.4.4.3 0 .4-.2.4-.4z"/><path fill="#D8D5CA" d="M532.5-48.3h7.5v20h-7.5v-20z"/><path fill="#EDE9DD" d="M532.5-68.3h7.5v22.5h-7.5v-22.5z"/><g fill="#EDE9DD"><circle cx="500.8" cy="-58.3" r="2.5"/><circle cx="500.8" cy="-48.3" r="2.5"/><path d="M500.8-60.8h31.7v15h-31.7v-15zm-2.5 2.5H520v10h-21.7v-10z"/></g><path fill="#D8D5CA" d="M500.8-60c-.9 0-1.7.8-1.7 1.7v10c0 .9.8 1.7 1.7 1.7h31.7V-60h-31.7z"/><path fill="#ACABA3" d="M500-47.5v-10c0-.9.8-1.7 1.7-1.7h30.8v-.8h-31.7c-.9 0-1.7.8-1.7 1.7v10c0 .7.4 1.2 1 1.5 0-.2-.1-.4-.1-.7z"/><path fill="#4DADC1" d="M500.8-58.3h31.7v11.7h-31.7v-11.7z"/><path fill="#258998" d="M500.8-58.3h31.7v.8h-31.7v-.8z"/><path fill="#4DADC1" d="M534.2-65.8h5v19.2h-5v-19.2z"/><path fill="#258998" d="M534.2-65.8h5v.8h-5v-.8z"/><path fill="#D8D5CA" d="M504.2-45.8h28.3v3.3h-28.3v-3.3z"/><path fill="#ACABA3" d="M504.2-45.8h30v1.7h-30v-1.7z"/><path fill="#4DADC1" d="M504.2-42.5h28.3v14.2h-28.3v-14.2z"/><path fill="#258998" d="M504.2-42.5h28.3v.8h-28.3v-.8z"/><path fill="#D8D5CA" d="M500.8-45.8h.8v17.5h-.8v-17.5z"/><path fill="#ACABA3" d="M500.8-45.8v.8l.8.8v-1.7h-.8z"/><path fill="#258998" d="M536.5-65.8h.4v19.2h-.4v-19.2zm-2.3 6.4h5v.4h-5v-.4zm0 6.7h5v.4h-5v-.4zm-26.9-5.6h.4v11.7h-.4v-11.7zm6.7 0h.4v11.7h-.4v-11.7zm6.6 0h.4v11.7h-.4v-11.7zm6.7 0h.4v11.7h-.4v-11.7zm-26.5 3.1h31.7v.4h-31.7v-.4zm7.3 12.7h.4v14.2h-.4v-14.2zm5 0h.4v14.2h-.4v-14.2zm5 0h.4v14.2h-.4v-14.2zm5 0h.4v14.2h-.4v-14.2zm5 0h.4v14.2h-.4v-14.2z"/><path opacity=".35" fill="#EDE9DD" enable-background="new" d="M523.3-58.3l9.2 9.2v2.5l-11.7-11.7h2.5zm-5 0L530-46.7h-.8l-11.7-11.7m-9.2.1L520-46.7h-4.2l-11.7-11.7"/><path opacity=".35" fill="#EDE9DD" enable-background="new" d="M500.8-52.5l5.8 5.8H505l-4.2-4.2v-1.6zm35-13.3l3.3 3.3v2.5l-5-5v-.8h1.7zm-1.6 1.6l5 5v.8l-5-5v-.8zm0 5.9l5 5v4.2l-5-5v-4.2z"/><path fill="#258998" d="M504.2-39.4h28.3v.4h-28.3v-.4z"/><path opacity=".35" fill="#EDE9DD" enable-background="new" d="M505.8-42.5L520-28.3h1.7l-14.2-14.2h-1.7zm10 0L530-28.3h2.5V-30L520-42.5h-4.2zM504.2-35l6.7 6.7h-4.2l-2.5-2.5V-35zm25-7.5l3.3 3.3v-.8l-2.5-2.5h-.8z"/><path fill="#EDE9DD" d="M535-37.9h1.7v.8H535v-.8zm-.8-1.3h1.7v.8h-1.7v-.8zm2 0h1.7v.8h-1.7v-.8z"/><path fill="#ACABA3" d="M532.5-42.5h7.5v.8h-7.5v-.8zm0-3.3h7.5v1.7h-7.5v-1.7z"/><path fill="#B24526" d="M497.9-30.8h2.5v2.5h-2.5v-2.5z"/><path fill="#DA613A" d="M498.8-30.8h.8v2.5h-.8v-2.5z"/><path fill="#85331D" d="M500.4-30.8h1.7v2.5h-1.7v-2.5z"/><path fill="#B24526" d="M497.5-31.7h5v.8h-5v-.8z"/><path fill="#85331D" d="M497.9-30.8h2.5v.8h-2.5v-.8z"/><path fill="#70C196" d="M500-37.5c-1.2.8-1.9 2.2-1.9 3.9 0 1.1.9 1.9 1.9 1.9 1.1 0 1.9-.9 1.9-1.9.1-1.7-.7-3.1-1.9-3.9z"/><path fill="#31A480" d="M500-37.5v5.8c1.1 0 1.9-.9 1.9-1.9.1-1.7-.7-3.1-1.9-3.9zm-1.1 4.2c0 .2.2.4.4.4 0-.2-.2-.4-.4-.4zm.8-2.1c-.2 0-.4.2-.4.4.3 0 .4-.2.4-.4z"/><path fill="#585A5B" d="M351.7-56.7l6.7-6.7h14.2v6.7h-20.9z"/><path fill="#DA613A" d="M351.7-55h20v26.7h-20V-55z"/><path fill="#EDE9DD" d="M351.7-56.7h20v1.7h-20v-1.7zm0 9.2h20v.8h-20v-.8zM355-55h13.3v5.8H355V-55z"/><path fill="#4DADC1" d="M355.8-55h11.7v5h-11.7v-5z"/><path fill="#EDE9DD" d="M355-46.7h13.3v5.8H355v-5.8z"/><path fill="#4DADC1" d="M355.8-46.7h11.7v5h-11.7v-5z"/><path fill="#EDE9DD" d="M350.8-56.7h4.2v.8h-4.2v-.8z"/><path fill="#D8D5CA" d="M351.7-55.8h6.7v.4h-6.7v-.4zm13.3 0h6.7v.4H365v-.4z"/><path fill="#EDE9DD" d="M355.8-55l5.8-5.8 5.8 5.8h-11.6z"/><path fill="#D8D5CA" d="M361.7-60l-5 5h.8l4.2-4.2 4.2 4.2h.8l-5-5z"/><circle fill="#D8D5CA" cx="361.7" cy="-57.5" r=".8"/><path fill="#258998" d="M355.8-55h11.7v.8h-11.7v-.8zm0 8.3h11.7v.8h-11.7v-.8z"/><path fill="#3F4142" d="M362.5-60h1.7l3.3 3.3h-1.7l-3.3-3.3z"/><path fill="#EDE9DD" d="M358.3-38.3c-1.8 0-3.3 1.5-3.3 3.3v6.7h6.7V-35c0-1.8-1.5-3.3-3.4-3.3z"/><path fill="#4DADC1" d="M355.8-28.3V-35c0-1.4 1.1-2.5 2.5-2.5s2.5 1.1 2.5 2.5v6.7h-5z"/><path fill="#258998" d="M358.3-37.5c-1.4 0-2.5 1.1-2.5 2.5v.8c0-1.4 1.1-2.5 2.5-2.5s2.5 1.1 2.5 2.5v-.8c0-1.4-1.1-2.5-2.5-2.5z"/><path fill="#EDE9DD" d="M365-38.3c-1.8 0-3.3 1.5-3.3 3.3v6.7h6.7V-35c-.1-1.8-1.6-3.3-3.4-3.3z"/><path fill="#4DADC1" d="M362.5-28.3V-35c0-1.4 1.1-2.5 2.5-2.5s2.5 1.1 2.5 2.5v6.7h-5z"/><path fill="#258998" d="M365-37.5c-1.4 0-2.5 1.1-2.5 2.5v.8c0-1.4 1.1-2.5 2.5-2.5s2.5 1.1 2.5 2.5v-.8c0-1.4-1.1-2.5-2.5-2.5zM358.1-55h.4v5h-.4v-5zm6.7 0h.4v5h-.4v-5zm-3.3 0h.4v5h-.4v-5zm-3.4 8.3h.4v5h-.4v-5zm6.7 0h.4v5h-.4v-5zm-3.3 0h.4v5h-.4v-5z"/><path opacity=".35" fill="#EDE9DD" enable-background="new" d="M360-55l5 5h2.5l-5-5H360zm-2.5 0l5 5h.8l-5-5h-.8zm8.3 8.3l1.7 1.7v-.8l-.8-.8h-.9zm-9.1 0l5 5h-4.2l-1.7-1.7v-3.3h.9z"/><path fill="#EDE9DD" d="M367.5-55h.8v26.7h-.8V-55zM355-55h.8v26.7h-.8V-55z"/><path opacity=".35" fill="#EDE9DD" enable-background="new" d="M367.5-33.3l-3.8-3.8c-.2.1-.3.2-.5.4l4.2 4.2v-.8zm0 4.1v-2.5l-4.6-4.6c-.2.4-.4.8-.4 1.3v.8l5 5zm-6.7 0l-5-5v1.7l4.2 4.2h.8v-.9z"/><path fill="#585A5B" d="M428.3-56.7l-6.7-6.7h-14.2v6.7h20.9z"/><path fill="#DA613A" d="M408.3-55h20v26.7h-20V-55z"/><path fill="#EDE9DD" d="M408.3-56.7h20v1.7h-20v-1.7zm0 9.2h20v.8h-20v-.8zm3.4-7.5H425v5.8h-13.3V-55z"/><path fill="#4DADC1" d="M412.5-55h11.7v5h-11.7v-5z"/><path fill="#EDE9DD" d="M411.7-46.7H425v5.8h-13.3v-5.8z"/><path fill="#4DADC1" d="M412.5-46.7h11.7v5h-11.7v-5z"/><path fill="#EDE9DD" d="M425-56.7h4.2v.8H425v-.8z"/><path fill="#D8D5CA" d="M421.7-55.8h6.7v.4h-6.7v-.4zm-13.4 0h6.7v.4h-6.7v-.4z"/><path fill="#EDE9DD" d="M424.2-55l-5.8-5.8-5.8 5.8h11.6z"/><path fill="#D8D5CA" d="M418.3-60l5 5h-.8l-4.2-4.2-4.2 4.2h-.8l5-5z"/><circle fill="#D8D5CA" cx="418.3" cy="-57.5" r=".8"/><path fill="#258998" d="M412.5-55h11.7v.8h-11.7v-.8zm0 8.3h11.7v.8h-11.7v-.8z"/><path fill="#3F4142" d="M419.2-60h1.7l3.3 3.3h-1.7l-3.3-3.3z"/><path fill="#EDE9DD" d="M421.7-38.3c1.8 0 3.3 1.5 3.3 3.3v6.7h-6.7V-35c0-1.8 1.5-3.3 3.4-3.3z"/><path fill="#4DADC1" d="M424.2-28.3V-35c0-1.4-1.1-2.5-2.5-2.5s-2.5 1.1-2.5 2.5v6.7h5z"/><path fill="#258998" d="M421.7-37.5c1.4 0 2.5 1.1 2.5 2.5v.8c0-1.4-1.1-2.5-2.5-2.5s-2.5 1.1-2.5 2.5v-.8c0-1.4 1.1-2.5 2.5-2.5z"/><path fill="#EDE9DD" d="M415-38.3c1.8 0 3.3 1.5 3.3 3.3v6.7h-6.7V-35c.1-1.8 1.6-3.3 3.4-3.3z"/><path fill="#4DADC1" d="M417.5-28.3V-35c0-1.4-1.1-2.5-2.5-2.5s-2.5 1.1-2.5 2.5v6.7h5z"/><path fill="#258998" d="M415-37.5c1.4 0 2.5 1.1 2.5 2.5v.8c0-1.4-1.1-2.5-2.5-2.5s-2.5 1.1-2.5 2.5v-.8c0-1.4 1.1-2.5 2.5-2.5zm6.5-17.5h.4v5h-.4v-5zm-6.7 0h.4v5h-.4v-5zm3.3 0h.4v5h-.4v-5zm3.4 8.3h.4v5h-.4v-5zm-6.7 0h.4v5h-.4v-5zm3.3 0h.4v5h-.4v-5z"/><path opacity=".35" fill="#EDE9DD" enable-background="new" d="M416.7-55l5 5h2.5l-5-5h-2.5zm-4.2 0l5 5h.8l-5-5h-.8zm8.3 8.3l3.3 3.3v-.8l-2.5-2.5h-.8z"/><path fill="#EDE9DD" d="M411.7-55h.8v26.7h-.8V-55zm12.5 0h.8v26.7h-.8V-55z"/><path opacity=".35" fill="#EDE9DD" enable-background="new" d="M417.5-33.3l-3.8-3.8c-.2.1-.3.2-.5.4l4.2 4.2v-.8zm0 4.1v-2.5l-4.6-4.6c-.2.4-.4.8-.4 1.3v.8l5 5z"/><path fill="#3F4142" d="M406.7-63.3h3.3v6.7h-3.3v-6.7z"/><path fill="#B24526" d="M408.3-55h1.7v7.5h-1.7V-55zm-.8 8.3h2.5v18.3h-2.5v-18.3z"/><path fill="#D8D5CA" d="M408.3-47.5h1.7v.8h-1.7v-.8zm0-9.2h1.7v1.7h-1.7v-1.7z"/><path fill="#ACABA3" d="M408.3-55.8h1.7v.4h-1.7v-.4z"/><path opacity=".35" fill="#EDE9DD" enable-background="new" d="M415.8-46.7l5 5h-4.2l-4.2-4.2v-.8h3.4zm3.4 15.9l2.5 2.5h.8l-3.3-3.3v.8zm0 .8v1.7h1.7l-1.7-1.7zm5-2.5V-35l-2.5-2.5c-.7 0-1.3.3-1.8.7l4.3 4.3z"/><path fill="#B24526" d="M378.3-65h23.3v36.7h-23.3V-65z"/><path fill="#EDE9DD" d="M383.5-66.7h-.4V-70c0-.4-.3-.6-.6-.6-.4 0-.6.3-.6.6v3.3h-.4V-70c0-.6.5-1 1-1 .6 0 1 .5 1 1v3.3zm-1.6 0h-.4V-70c0-.4-.3-.6-.6-.6-.4 0-.6.3-.6.6v3.3h-.4V-70c0-.6.5-1 1-1 .6 0 1 .5 1 1v3.3zm-1.7 0h-.4V-70c0-.4-.3-.6-.6-.6v-.4c.6 0 1 .5 1 1v3.3zm5 0h-.4V-70c0-.4-.3-.6-.6-.6-.4 0-.6.3-.6.6v3.3h-.4V-70c0-.6.5-1 1-1 .6 0 1 .5 1 1v3.3zm1.7 0h-.4V-70c0-.4-.3-.6-.6-.6-.4 0-.6.3-.6.6v3.3h-.4V-70c0-.6.5-1 1-1 .6 0 1 .5 1 1v3.3zm1.6 0h-.4V-70c0-.4-.3-.6-.6-.6-.4 0-.6.3-.6.6v3.3h-.4V-70c0-.6.5-1 1-1 .6 0 1 .5 1 1v3.3zm1.7 0h-.4V-70c0-.4-.3-.6-.6-.6-.4 0-.6.3-.6.6v3.3h-.4V-70c0-.6.5-1 1-1 .6 0 1 .5 1 1v3.3zm1.7 0h-.4V-70c0-.4-.3-.6-.6-.6-.4 0-.6.3-.6.6v3.3h-.4V-70c0-.6.5-1 1-1 .6 0 1 .5 1 1v3.3zm1.6 0h-.4V-70c0-.4-.3-.6-.6-.6-.4 0-.6.3-.6.6v3.3h-.4V-70c0-.6.5-1 1-1 .6 0 1 .5 1 1v3.3zm1.7 0h-.4V-70c0-.4-.3-.6-.6-.6-.4 0-.6.3-.6.6v3.3h-.4V-70c0-.6.5-1 1-1 .6 0 1 .5 1 1v3.3zm1.7 0h-.4V-70c0-.4-.3-.6-.6-.6-.4 0-.6.3-.6.6v3.3h-.4V-70c0-.6.5-1 1-1 .6 0 1 .5 1 1v3.3zm1.6 0h-.4V-70c0-.4-.3-.6-.6-.6-.4 0-.6.3-.6.6v3.3h-.4V-70c0-.6.5-1 1-1 .6 0 1 .5 1 1v3.3zm1.7 0h-.4V-70c0-.4-.3-.6-.6-.6-.4 0-.6.3-.6.6v3.3h-.4V-70c0-.6.5-1 1-1 .6 0 1 .5 1 1v3.3zm0 0h-.4V-70c0-.6.5-1 1-1v.4c-.4 0-.6.3-.6.6v3.3z"/><path fill="#DA613A" d="M373.3-51.7h3.3v23.3h-3.3v-23.3z"/><path fill="#B24526" d="M376.7-51.7h1.7v23.3h-1.7v-23.3zm-5 0h1.7v23.3h-1.7v-23.3z"/><path fill="#85331D" d="M376.7-51.7h.8v23.3h-.8v-23.3z"/><path fill="#DA613A" d="M373.3-55.8h3.3v3.3h-3.3v-3.3z"/><path fill="#B24526" d="M376.7-55.8h1.7v3.3h-1.7v-3.3zm-5 0h1.7v3.3h-1.7v-3.3z"/><path fill="#85331D" d="M376.7-55.8h.8v3.3h-.8v-3.3z"/><path fill="#EDE9DD" d="M373.3-52.5h3.3v.8h-3.3v-.8z"/><path fill="#D8D5CA" d="M371.7-52.5h1.7v.8h-1.7v-.8zm5 0h1.7v.8h-1.7v-.8z"/><path fill="#ACABA3" d="M376.7-52.5h.8v.8h-.8v-.8z"/><path fill="#EDE9DD" d="M373.3-57.5h3.3v1.7h-3.3v-1.7z"/><path fill="#D8D5CA" d="M371.7-57.5h1.7v1.7h-1.7v-1.7z"/><path fill="#EDE9DD" d="M371.7-57.5l.8-.8h5.8v.8h-6.6z"/><path fill="#DA613A" d="M372.5-65h4.2v6.7h-4.2V-65z"/><path fill="#B24526" d="M376.7-65h1.7v6.7h-1.7V-65z"/><path fill="#85331D" d="M376.7-65h.8v6.7h-.8V-65z"/><path fill="#D8D5CA" d="M376.7-58.3h1.7v2.5h-1.7v-2.5z"/><path fill="#ACABA3" d="M376.7-58.3h.8v2.5h-.8v-2.5z"/><path fill="#EDE9DD" d="M372.5-73.3h4.2v8.3h-4.2v-8.3z"/><path fill="#ACABA3" d="M376.7-73.3h.8v8.3h-.8v-8.3z"/><path fill="#D8D5CA" d="M377.5-73.3h.8v8.3h-.8v-8.3zm-5 .8h4.2v.8h-4.2v-.8z"/><path fill="#ACABA3" d="M377.5-72.5h.8v.8h-.8v-.8z"/><path fill="#EDE9DD" d="M371.7-73.3h1.7v.8h-1.7v-.8zm1.6-1.7h1.7v1.7h-1.7V-75z"/><path fill="#D8D5CA" d="M375-75h1.7v1.7H375V-75z"/><path fill="#DA613A" d="M403.3-51.7h3.3v23.3h-3.3v-23.3z"/><path fill="#B24526" d="M401.7-51.7h1.7v23.3h-1.7v-23.3zm5 0h1.7v23.3h-1.7v-23.3z"/><path fill="#85331D" d="M406.7-51.7h.8v23.3h-.8v-23.3z"/><path fill="#DA613A" d="M403.3-55.8h3.3v3.3h-3.3v-3.3z"/><path fill="#B24526" d="M401.7-55.8h1.7v3.3h-1.7v-3.3zm5 0h1.7v3.3h-1.7v-3.3z"/><path fill="#85331D" d="M406.7-55.8h.8v3.3h-.8v-3.3z"/><path fill="#EDE9DD" d="M403.3-52.5h3.3v.8h-3.3v-.8z"/><path fill="#D8D5CA" d="M406.7-52.5h1.7v.8h-1.7v-.8zm-5 0h1.7v.8h-1.7v-.8z"/><path fill="#ACABA3" d="M406.7-52.5h.8v.8h-.8v-.8z"/><path fill="#EDE9DD" d="M403.3-57.5h3.3v1.7h-3.3v-1.7z"/><path fill="#D8D5CA" d="M406.7-57.5h1.7v1.7h-1.7v-1.7z"/><path fill="#DA613A" d="M403.3-65h4.2v6.7h-4.2V-65z"/><path fill="#B24526" d="M401.7-65h1.7v6.7h-1.7V-65z"/><path fill="#EDE9DD" d="M401.7-58.3h1.7v2.5h-1.7v-2.5zm1.6-15h4.2v8.3h-4.2v-8.3z"/><path fill="#D8D5CA" d="M403.3-72.5h4.2v.8h-4.2v-.8z"/><path fill="#EDE9DD" d="M406.7-73.3h1.7v.8h-1.7v-.8z"/><path fill="#D8D5CA" d="M405-75h1.7v1.7H405V-75z"/><path fill="#EDE9DD" d="M403.3-75h1.7v1.7h-1.7V-75z"/><path fill="#ACABA3" d="M406.7-57.5h.8v1.7h-.8v-1.7z"/><path fill="#EDE9DD" d="M408.3-57.5l-.8-.8h-5.8v.8h6.6z"/><path fill="#D8D5CA" d="M401.7-73.3h1.7v8.3h-1.7v-8.3z"/><path fill="#EDE9DD" d="M378.3-66.7h23.3v1.7h-23.3v-1.7z"/><path fill="#D8D5CA" d="M378.3-66h23.3v.4h-23.3v-.4z"/><path fill="#EDE9DD" d="M378.3-72.5h23.3v.8h-23.3v-.8zm0 4.2h23.3v.8h-23.3v-.8zm0-2.7h23.3v.4h-23.3v-.4zm8.2-.7h.4v.8h-.4v-.8zm-.9 0h.4v.8h-.4v-.8zm-.8 0h.4v.8h-.4v-.8zm-.8 0h.4v.8h-.4v-.8zm-.9 0h.4v.8h-.4v-.8zm-.8 0h.4v.8h-.4v-.8zm-.8 0h.4v.8h-.4v-.8zm-.9 0h.4v.8h-.4v-.8zm-.8 0h.4v.8h-.4v-.8zm-.8 0h.4v.8h-.4v-.8zm8.3 0h.4v.8h-.4v-.8zm.8 0h.4v.8h-.4v-.8zm.9 0h.4v.8h-.4v-.8zm.8 0h.4v.8h-.4v-.8zm.8 0h.4v.8h-.4v-.8zm.9 0h.4v.8h-.4v-.8zm.8 0h.4v.8h-.4v-.8zm.8 0h.4v.8h-.4v-.8zm.9 0h.4v.8h-.4v-.8zm.8 0h.4v.8h-.4v-.8zm.8 0h.4v.8h-.4v-.8zm.9 0h.4v.8h-.4v-.8zm.8 0h.4v.8h-.4v-.8zm.8 0h.4v.8h-.4v-.8zm.9 0h.4v.8h-.4v-.8zm.8 0h.4v.8h-.4v-.8zm.8 0h.4v.8h-.4v-.8zm-17.3-.8h1.7v5.8h-1.7v-5.8zm11.7 0h1.7v5.8H395v-5.8z"/><path fill="#D8D5CA" d="M395.4-71.7h.8v5h-.8v-5zm-11.6 0h.8v5h-.8v-5z"/><circle fill="#EDE9DD" cx="384.2" cy="-73.3" r=".8"/><circle fill="#EDE9DD" cx="395.8" cy="-73.3" r=".8"/><path fill="#EDE9DD" d="M383.3-65h1.7v36.7h-1.7V-65zm11.7 0h1.7v36.7H395V-65z"/><path fill="#D8D5CA" d="M383.3-65h1.7v.8h-1.7v-.8zm11.7 0h1.7v.8H395v-.8z"/><path fill="#85331D" d="M385-65h10v.8h-10v-.8zm-6.7 0h5v.8h-5v-.8zm18.4 0h5v.8h-5v-.8zm-18.4 0h.8v36.7h-.8V-65z"/><path fill="#ACABA3" d="M378.3-57.5h.8v2.5h-.8v-2.5z"/><path fill="#D8D5CA" d="M379.2-57.5h4.2v2.5h-4.2v-2.5zm5.8 0h10v2.5h-10v-2.5zm11.7 0h5v2.5h-5v-2.5zm-15.9-5.8c-.9 0-1.7.8-1.7 1.7v4.2h3.3v-4.2c.1-1-.6-1.7-1.6-1.7z"/><path fill="#4DADC1" d="M379.6-57.5v-4.2c0-.7.6-1.2 1.2-1.2.7 0 1.2.6 1.2 1.2v4.2h-2.4z"/><path fill="#258998" d="M380.8-62.9c-.7 0-1.2.6-1.2 1.2v.8c0-.7.6-1.2 1.2-1.2.7 0 1.2.6 1.2 1.2v-.8c.1-.7-.5-1.2-1.2-1.2z"/><path fill="#D8D5CA" d="M399.2-63.3c-.9 0-1.7.8-1.7 1.7v4.2h3.3v-4.2c0-1-.7-1.7-1.6-1.7z"/><path fill="#4DADC1" d="M397.9-57.5v-4.2c0-.7.6-1.2 1.2-1.2s1.2.6 1.2 1.2v4.2h-2.4z"/><path fill="#258998" d="M399.2-62.9c-.7 0-1.2.6-1.2 1.2v.8c0-.7.6-1.2 1.2-1.2s1.2.6 1.2 1.2v-.8c0-.7-.5-1.2-1.2-1.2z"/><path fill="#D8D5CA" d="M390-63.3c-2.3 0-4.2 1.9-4.2 4.2v2.5h8.3v-2.5c.1-2.4-1.8-4.2-4.1-4.2z"/><path fill="#4DADC1" d="M386.2-57.5v-1.7c0-2.1 1.7-3.8 3.8-3.8s3.8 1.7 3.8 3.8v1.7h-7.6z"/><path fill="#258998" d="M390-62.9c-2.1 0-3.8 1.7-3.8 3.8v.8c0-2.1 1.7-3.8 3.8-3.8s3.8 1.7 3.8 3.8v-.8c0-2.1-1.7-3.8-3.8-3.8z"/><path fill="#ACABA3" d="M378.3-49.2h.8v.8h-.8v-.8z"/><path fill="#D8D5CA" d="M379.2-49.2h4.2v.8h-4.2v-.8zm17.5 0h5v.8h-5v-.8zm-11.7 0h10v.8h-10v-.8z"/><path fill="#ACABA3" d="M378.3-42.5h.8v.8h-.8v-.8z"/><path fill="#D8D5CA" d="M379.2-42.5h4.2v.8h-4.2v-.8zm17.5 0h5v.8h-5v-.8zm-11.7 0h10v.8h-10v-.8z"/><path fill="#4DADC1" d="M385-55h10v5.8h-10V-55z"/><path fill="#258998" d="M385-55h10v.8h-10v-.8z"/><path fill="#4DADC1" d="M385-48.3h10v5.8h-10v-5.8z"/><path fill="#258998" d="M385-48.3h10v.8h-10v-.8z"/><path fill="#4DADC1" d="M385-41.7h10v13.3h-10v-13.3z"/><path fill="#258998" d="M385-41.7h10v.8h-10v-.8z"/><path fill="#D8D5CA" d="M380.8-40c-.9 0-1.7.8-1.7 1.7v7.5h3.3v-7.5c.1-.9-.6-1.7-1.6-1.7z"/><path fill="#4DADC1" d="M379.6-30.8v-7.5c0-.7.6-1.2 1.2-1.2.7 0 1.2.6 1.2 1.2v7.5h-2.4z"/><path fill="#258998" d="M380.8-39.6c-.7 0-1.2.6-1.2 1.2v.8c0-.7.6-1.2 1.2-1.2.7 0 1.2.6 1.2 1.2v-.8c.1-.6-.5-1.2-1.2-1.2z"/><path fill="#D8D5CA" d="M379.2-30.8h3.3v.8h-3.3v-.8zm20-9.2c-.9 0-1.7.8-1.7 1.7v7.5h3.3v-7.5c0-.9-.7-1.7-1.6-1.7z"/><path fill="#4DADC1" d="M397.9-30.8v-7.5c0-.7.6-1.2 1.2-1.2s1.2.6 1.2 1.2v7.5h-2.4z"/><path fill="#258998" d="M399.2-39.6c-.7 0-1.2.6-1.2 1.2v.8c0-.7.6-1.2 1.2-1.2s1.2.6 1.2 1.2v-.8c0-.6-.5-1.2-1.2-1.2z"/><path fill="#D8D5CA" d="M397.5-30.8h3.3v.8h-3.3v-.8z"/><path fill="#258998" d="M393.1-55h.4v5.8h-.4V-55zm-6.6 0h.4v5.8h-.4V-55zm6.6 6.7h.4v5.8h-.4v-5.8zm-6.6 0h.4v5.8h-.4v-5.8zm6.6 6.6h.4v13.3h-.4v-13.3zm-6.6 0h.4v13.3h-.4v-13.3zm-1.5-11h10v.4h-10v-.4zm0 6.7h10v.4h-10v-.4zm0 6.6h10v.4h-10v-.4z"/><path opacity=".35" fill="#EDE9DD" enable-background="new" d="M387.5-55l5.8 5.8h1.7l-5.8-5.8h-1.7zm-2.5 1.7l4.2 4.2h-3.3l-.9-.9v-3.3zm5 5l5 5v.8h-2.5l-5.8-5.8h3.3zm-5 0l5.8 5.8h-.8l-5-5v-.8zm6.7 6.6l3.3 3.3v.8l-4.2-4.2h.9zm1.6 0L395-40v-1.7h-1.7zm-8.3 3.4l10 10h-4.2l-5.8-5.8v-4.2z"/><path fill="#4DADC1" d="M308.3-66.7H320v5h-11.7v-5z"/><path fill="#258998" d="M308.3-66.7h2.5v5h-2.5v-5z"/><path fill="#4DADC1" d="M308.3-61.7H320v33.3h-11.7v-33.3z"/><path fill="#258998" d="M308.3-61.7h1.7v33.3h-1.7v-33.3z"/><path fill="#EDE9DD" d="M320-70.8h2.5v42.5H320v-42.5z"/><path fill="#D8D5CA" d="M320-70.8h2.5v.8H320v-.8z"/><path fill="#258998" d="M309.2-62.5H320v.8h-10.8v-.8z"/><path fill="#585A5B" d="M309.2-67.5H320v.8h-10.8v-.8zm13.3 0h14.2v.8h-14.2v-.8z"/><path fill="#4DADC1" d="M322.5-66.7h14.2v5h-14.2v-5z"/><path fill="#258998" d="M322.5-62.5h14.2v.8h-14.2v-.8zm0-4.2h1.7v5h-1.7v-5z"/><path fill="#161B20" d="M322.5-67.5h1.7v.8h-1.7v-.8z"/><path fill="#258998" d="M312.3-61.7h.4v33.3h-.4v-33.3zm5 0h.4v33.3h-.4v-33.3z"/><path opacity=".35" fill="#EDE9DD" enable-background="new" d="M309.2-60.8L320-50v4.2l-11.7-11.7v-3.3h.9zm0 11.6L320-38.3v.8l-11.7-11.7h.9zm0 2.5L320-35.8v7.5L308.3-40v-6.7h.9z"/><path fill="#258998" d="M313.1-66.7h.4v5h-.4v-5zm5 0h.4v5h-.4v-5z"/><path fill="#4DADC1" d="M322.5-61.7h16.7v33.3h-16.7v-33.3z"/><path fill="#EDE9DD" d="M322.5-61.7h16.7v3.3h-16.7v-3.3z"/><path opacity=".35" fill="#EDE9DD" enable-background="new" d="M308.3-66.7l5 5h-5l-5-5h5z"/><path fill="#D8D5CA" d="M322.5-61.7h.8v3.3h-.8v-3.3z"/><path fill="#258998" d="M322.5-58.3h16.7v.8h-16.7v-.8z"/><path fill="#EDE9DD" d="M255.8-68.3h53.3v1.7h-53.3v-1.7zm0 2.5h53.3v1.7h-53.3v-1.7z"/><path fill="#D8D5CA" d="M256.7-66.7h51.7v.8h-51.7v-.8z"/><path fill="#EDE9DD" d="M255.8-48.3h53.3v1.7h-53.3v-1.7z"/><path fill="#D8D5CA" d="M256.7-46.7h51.7v.8h-51.7v-.8z"/><path fill="#EDE9DD" d="M255.8-45.8h53.3v1.7h-53.3v-1.7zm0 2.5h53.3v1.7h-53.3v-1.7z"/><path fill="#D8D5CA" d="M256.7-44.2h51.7v.8h-51.7v-.8z"/><path fill="#EDE9DD" d="M255.8-40.8h53.3v1.7h-53.3v-1.7z"/><path fill="#D8D5CA" d="M256.7-41.7h51.7v.8h-51.7v-.8z"/><path fill="#EDE9DD" d="M255.8-63.3h53.3v1.7h-53.3v-1.7z"/><path fill="#D8D5CA" d="M256.7-64.2h51.7v.8h-51.7v-.8z"/><path fill="#EDE9DD" d="M255.8-60.8h53.3v1.7h-53.3v-1.7z"/><path fill="#D8D5CA" d="M256.7-61.7h51.7v.8h-51.7v-.8z"/><path fill="#4DADC1" d="M256.7-59.2h40v10.8h-40v-10.8z"/><path fill="#D8D5CA" d="M296.7-59.2h11.7v.8h-11.7v-.8z"/><path fill="#EDE9DD" d="M296.7-58.3h12.5v1.7h-12.5v-1.7z"/><path fill="#D8D5CA" d="M296.7-56.7h11.7v.8h-11.7v-.8z"/><path fill="#EDE9DD" d="M296.7-55.8h12.5v1.7h-12.5v-1.7z"/><path fill="#D8D5CA" d="M296.7-54.2h11.7v.8h-11.7v-.8z"/><path fill="#EDE9DD" d="M296.7-53.3h12.5v1.7h-12.5v-1.7z"/><path fill="#D8D5CA" d="M296.7-51.7h11.7v.8h-11.7v-.8zm0 2.5h11.7v.8h-11.7v-.8z"/><path fill="#EDE9DD" d="M296.7-50.8h12.5v1.7h-12.5v-1.7z"/><path fill="#258998" d="M256.7-59.2h40v.8h-40v-.8zm6.4 0h.4v10.8h-.4v-10.8zm6.7 0h.4v10.8h-.4v-10.8zm6.7 0h.4v10.8h-.4v-10.8zm6.6 0h.4v10.8h-.4v-10.8zm6.7 0h.4v10.8h-.4v-10.8z"/><path fill="#4DADC1" d="M256.7-39.2h50v10.8h-50v-10.8z"/><path opacity=".35" fill="#EDE9DD" enable-background="new" d="M256.7-54.2l5.8 5.8h4.2l-10-10v4.2zm6.6-5l10.8 10.8h.8l-10.8-10.8h-.8zm3.4 0l10.8 10.8h4.2l-10.8-10.8h-4.2zm18.3 0l10.8 10.8h.8v-2.5l-8.3-8.3H285z"/><path fill="#D8D5CA" d="M306.7-39.2h1.7v10.8h-1.7v-10.8z"/><path fill="#258998" d="M256.7-39.2h50v.8h-50v-.8zm6.4 0h.4v10.8h-.4v-10.8zm6.7 0h.4v10.8h-.4v-10.8zm6.7 0h.4v10.8h-.4v-10.8zm6.6 0h.4v10.8h-.4v-10.8zm6.7 0h.4v10.8h-.4v-10.8zm13.3 0h.4v10.8h-.4v-10.8zm-6.5 0h.4v10.8h-.4v-10.8zm25.9-19.1h.8v30h-.8v-30zm3.1 0h.4v30h-.4v-30zm.9-8.4h.4v4.2h-.4v-4.2zm5 0h.4v4.2h-.4v-4.2zm-.9 8.4h.4v30h-.4v-30zm5 0h.4v30h-.4v-30z"/><path opacity=".35" fill="#EDE9DD" enable-background="new" d="M320-60v2.5l-4.2-4.2h2.5L320-60zm-5.8-6.7l5 5h.8v-1.7l-3.3-3.3h-2.5zm8.3 11.7l16.7 16.7v3.3l-16.7-16.7V-55zm0 6.7l16.7 16.7v.8l-16.7-16.7v-.8zm10.8-10l5.8 5.8v-4.2l-1.7-1.7h-4.1zm-3.3-8.4l5 5h1.7v-2.5l-2.5-2.5H330zM322.5-35l6.7 6.7h-6.7V-35zm-34.2-4.2l10.8 10.8H295l-10.8-10.8h4.1zm-6.6 0l10.8 10.8h-.8l-10.8-10.8h.8zm14.1 0l10.8 10.8h-.8L295-39.2h.8zm-22.5 0l10.8 10.8h-5l-10.8-10.8h5zm-13.3 0h-3.3v3.3l7.5 7.5h6.7L260-39.2z"/><circle fill="#EDE9DD" cx="347.4" cy="-45" r="10"/><path fill="#D8D5CA" d="M353.1-53.2c1.1 1.6 1.8 3.6 1.8 5.7 0 5.5-4.5 10-10 10-2.1 0-4.1-.7-5.7-1.8 1.8 2.6 4.8 4.3 8.2 4.3 5.5 0 10-4.5 10-10 0-3.4-1.7-6.4-4.3-8.2z"/><path fill="#EDE9DD" d="M340.8-35h6.7v4.2h-6.7V-35z"/><path fill="#D8D5CA" d="M347.4-35h6.7v4.2h-6.7V-35z"/><path fill="#70C196" d="M347.4-28.3v-5c-4.9 0-9.3 1.9-12.6 5h12.6z"/><path fill="#31A480" d="M347.4-28.3v-5c4.9 0 9.3 1.9 12.6 5h-12.6z"/><path fill="#D8D5CA" d="M340.8-34.2h6.7v.8h-6.7v-.8z"/><path fill="#ACABA3" d="M347.4-34.2h6.7v.8h-6.7v-.8z"/><path fill="#B24526" d="M320.4-30.8h2.5v2.5h-2.5v-2.5z"/><path fill="#DA613A" d="M321.2-30.8h.8v2.5h-.8v-2.5z"/><path fill="#85331D" d="M322.9-30.8h1.7v2.5h-1.7v-2.5z"/><path fill="#B24526" d="M320-31.7h5v.8h-5v-.8z"/><path fill="#85331D" d="M320.4-30.8h2.5v.8h-2.5v-.8z"/><path fill="#70C196" d="M322.5-37.5c-1.2.8-1.9 2.2-1.9 3.9 0 1.1.9 1.9 1.9 1.9 1.1 0 1.9-.9 1.9-1.9.1-1.7-.7-3.1-1.9-3.9z"/><path fill="#31A480" d="M322.5-37.5v5.8c1.1 0 1.9-.9 1.9-1.9.1-1.7-.7-3.1-1.9-3.9zm-1.1 4.2c0 .2.2.4.4.4 0-.2-.2-.4-.4-.4zm.8-2.1c-.2 0-.4.2-.4.4.3 0 .4-.2.4-.4z"/></svg>